<svg width="348" height="99" viewBox="0 0 348 99" fill="none" xmlns="http://www.w3.org/2000/svg">
<path d="M60.1477 97V85.3636H64.5114C65.4053 85.3636 66.1553 85.5303 66.7614 85.8636C67.3712 86.197 67.8314 86.6553 68.142 87.2386C68.4564 87.8182 68.6136 88.4773 68.6136 89.2159C68.6136 89.9621 68.4564 90.625 68.142 91.2045C67.8277 91.7841 67.3636 92.2405 66.75 92.5739C66.1364 92.9034 65.3807 93.0682 64.483 93.0682H61.5909V91.3352H64.1989C64.7216 91.3352 65.1496 91.2443 65.483 91.0625C65.8163 90.8807 66.0625 90.6307 66.2216 90.3125C66.3845 89.9943 66.4659 89.6288 66.4659 89.2159C66.4659 88.803 66.3845 88.4394 66.2216 88.125C66.0625 87.8106 65.8144 87.5663 65.4773 87.392C65.1439 87.214 64.714 87.125 64.1875 87.125H62.2557V97H60.1477ZM70.4446 97V85.3636H78.0128V87.1307H72.5526V90.2898H77.6207V92.0568H72.5526V95.233H78.0582V97H70.4446ZM80.1634 97V85.3636H82.2713V95.233H87.3963V97H80.1634ZM99.1705 91.1818C99.1705 92.4356 98.9356 93.5095 98.4659 94.4034C98 95.2936 97.3636 95.9754 96.5568 96.4489C95.7538 96.9223 94.8428 97.1591 93.8239 97.1591C92.8049 97.1591 91.892 96.9223 91.0852 96.4489C90.2822 95.9716 89.6458 95.2879 89.1761 94.3977C88.7102 93.5038 88.4773 92.4318 88.4773 91.1818C88.4773 89.928 88.7102 88.8561 89.1761 87.9659C89.6458 87.072 90.2822 86.3883 91.0852 85.9148C91.892 85.4413 92.8049 85.2045 93.8239 85.2045C94.8428 85.2045 95.7538 85.4413 96.5568 85.9148C97.3636 86.3883 98 87.072 98.4659 87.9659C98.9356 88.8561 99.1705 89.928 99.1705 91.1818ZM97.0511 91.1818C97.0511 90.2992 96.9129 89.5549 96.6364 88.9489C96.3636 88.339 95.9848 87.8788 95.5 87.5682C95.0152 87.2538 94.4564 87.0966 93.8239 87.0966C93.1913 87.0966 92.6326 87.2538 92.1477 87.5682C91.6629 87.8788 91.2822 88.339 91.0057 88.9489C90.733 89.5549 90.5966 90.2992 90.5966 91.1818C90.5966 92.0644 90.733 92.8106 91.0057 93.4205C91.2822 94.0265 91.6629 94.4867 92.1477 94.8011C92.6326 95.1117 93.1913 95.267 93.8239 95.267C94.4564 95.267 95.0152 95.1117 95.5 94.8011C95.9848 94.4867 96.3636 94.0265 96.6364 93.4205C96.9129 92.8106 97.0511 92.0644 97.0511 91.1818ZM105.132 97V85.3636H112.587V87.1307H107.24V90.2898H112.075V92.0568H107.24V97H105.132ZM121.842 85.3636H123.95V92.9659C123.95 93.7992 123.753 94.5322 123.359 95.1648C122.969 95.7973 122.42 96.2917 121.712 96.6477C121.003 97 120.176 97.1761 119.229 97.1761C118.278 97.1761 117.448 97 116.74 96.6477C116.032 96.2917 115.482 95.7973 115.092 95.1648C114.702 94.5322 114.507 93.7992 114.507 92.9659V85.3636H116.615V92.7898C116.615 93.2746 116.721 93.7064 116.933 94.0852C117.149 94.464 117.452 94.7614 117.842 94.9773C118.232 95.1894 118.695 95.2955 119.229 95.2955C119.763 95.2955 120.225 95.1894 120.615 94.9773C121.009 94.7614 121.312 94.464 121.524 94.0852C121.736 93.7064 121.842 93.2746 121.842 92.7898V85.3636ZM125.73 87.1307V85.3636H135.014V87.1307H131.418V97H129.327V87.1307H125.73ZM144.139 85.3636H146.247V92.9659C146.247 93.7992 146.05 94.5322 145.656 95.1648C145.266 95.7973 144.717 96.2917 144.009 96.6477C143.3 97 142.473 97.1761 141.526 97.1761C140.575 97.1761 139.745 97 139.037 96.6477C138.329 96.2917 137.779 95.7973 137.389 95.1648C136.999 94.5322 136.804 93.7992 136.804 92.9659V85.3636H138.912V92.7898C138.912 93.2746 139.018 93.7064 139.23 94.0852C139.446 94.464 139.749 94.7614 140.139 94.9773C140.529 95.1894 140.991 95.2955 141.526 95.2955C142.06 95.2955 142.522 95.1894 142.912 94.9773C143.306 94.7614 143.609 94.464 143.821 94.0852C144.033 93.7064 144.139 93.2746 144.139 92.7898V85.3636ZM148.538 97V85.3636H152.902C153.796 85.3636 154.546 85.5189 155.152 85.8295C155.762 86.1402 156.222 86.5758 156.533 87.1364C156.847 87.6932 157.004 88.3428 157.004 89.0852C157.004 89.8314 156.845 90.4792 156.527 91.0284C156.213 91.5739 155.749 91.9962 155.135 92.2955C154.521 92.5909 153.768 92.7386 152.874 92.7386H149.766V90.9886H152.589C153.112 90.9886 153.54 90.9167 153.874 90.7727C154.207 90.625 154.453 90.411 154.612 90.1307C154.775 89.8466 154.857 89.4981 154.857 89.0852C154.857 88.6723 154.775 88.3201 154.612 88.0284C154.449 87.733 154.201 87.5095 153.868 87.358C153.535 87.2027 153.105 87.125 152.578 87.125H150.646V97H148.538ZM154.55 91.7273L157.43 97H155.078L152.249 91.7273H154.55ZM169.342 91.1818C169.342 92.4356 169.107 93.5095 168.638 94.4034C168.172 95.2936 167.536 95.9754 166.729 96.4489C165.926 96.9223 165.015 97.1591 163.996 97.1591C162.977 97.1591 162.064 96.9223 161.257 96.4489C160.454 95.9716 159.818 95.2879 159.348 94.3977C158.882 93.5038 158.649 92.4318 158.649 91.1818C158.649 89.928 158.882 88.8561 159.348 87.9659C159.818 87.072 160.454 86.3883 161.257 85.9148C162.064 85.4413 162.977 85.2045 163.996 85.2045C165.015 85.2045 165.926 85.4413 166.729 85.9148C167.536 86.3883 168.172 87.072 168.638 87.9659C169.107 88.8561 169.342 89.928 169.342 91.1818ZM167.223 91.1818C167.223 90.2992 167.085 89.5549 166.808 88.9489C166.536 88.339 166.157 87.8788 165.672 87.5682C165.187 87.2538 164.628 87.0966 163.996 87.0966C163.363 87.0966 162.804 87.2538 162.32 87.5682C161.835 87.8788 161.454 88.339 161.178 88.9489C160.905 89.5549 160.768 90.2992 160.768 91.1818C160.768 92.0644 160.905 92.8106 161.178 93.4205C161.454 94.0265 161.835 94.4867 162.32 94.8011C162.804 95.1117 163.363 95.267 163.996 95.267C164.628 95.267 165.187 95.1117 165.672 94.8011C166.157 94.4867 166.536 94.0265 166.808 93.4205C167.085 92.8106 167.223 92.0644 167.223 91.1818ZM179.247 97H175.304V85.3636H179.327C180.482 85.3636 181.474 85.5966 182.304 86.0625C183.137 86.5246 183.777 87.1894 184.224 88.0568C184.671 88.9242 184.895 89.9621 184.895 91.1705C184.895 92.3826 184.67 93.4242 184.219 94.2955C183.772 95.1667 183.126 95.8352 182.281 96.3011C181.44 96.767 180.429 97 179.247 97ZM177.412 95.1761H179.145C179.955 95.1761 180.632 95.0284 181.173 94.733C181.715 94.4337 182.122 93.9886 182.395 93.3977C182.668 92.803 182.804 92.0606 182.804 91.1705C182.804 90.2803 182.668 89.5417 182.395 88.9545C182.122 88.3636 181.719 87.9223 181.185 87.6307C180.654 87.3352 179.995 87.1875 179.207 87.1875H177.412V95.1761ZM197.295 91.1818C197.295 92.4356 197.061 93.5095 196.591 94.4034C196.125 95.2936 195.489 95.9754 194.682 96.4489C193.879 96.9223 192.968 97.1591 191.949 97.1591C190.93 97.1591 190.017 96.9223 189.21 96.4489C188.407 95.9716 187.771 95.2879 187.301 94.3977C186.835 93.5038 186.602 92.4318 186.602 91.1818C186.602 89.928 186.835 88.8561 187.301 87.9659C187.771 87.072 188.407 86.3883 189.21 85.9148C190.017 85.4413 190.93 85.2045 191.949 85.2045C192.968 85.2045 193.879 85.4413 194.682 85.9148C195.489 86.3883 196.125 87.072 196.591 87.9659C197.061 88.8561 197.295 89.928 197.295 91.1818ZM195.176 91.1818C195.176 90.2992 195.038 89.5549 194.761 88.9489C194.489 88.339 194.11 87.8788 193.625 87.5682C193.14 87.2538 192.581 87.0966 191.949 87.0966C191.316 87.0966 190.758 87.2538 190.273 87.5682C189.788 87.8788 189.407 88.339 189.131 88.9489C188.858 89.5549 188.722 90.2992 188.722 91.1818C188.722 92.0644 188.858 92.8106 189.131 93.4205C189.407 94.0265 189.788 94.4867 190.273 94.8011C190.758 95.1117 191.316 95.267 191.949 95.267C192.581 95.267 193.14 95.1117 193.625 94.8011C194.11 94.4867 194.489 94.0265 194.761 93.4205C195.038 92.8106 195.176 92.0644 195.176 91.1818ZM202.746 87.1307V85.3636H212.03V87.1307H208.433V97H206.342V87.1307H202.746ZM213.82 97V85.3636H218.183C219.077 85.3636 219.827 85.5189 220.433 85.8295C221.043 86.1402 221.503 86.5758 221.814 87.1364C222.128 87.6932 222.286 88.3428 222.286 89.0852C222.286 89.8314 222.126 90.4792 221.808 91.0284C221.494 91.5739 221.03 91.9962 220.416 92.2955C219.803 92.5909 219.049 92.7386 218.155 92.7386H215.047V90.9886H217.871C218.393 90.9886 218.821 90.9167 219.155 90.7727C219.488 90.625 219.734 90.411 219.893 90.1307C220.056 89.8466 220.138 89.4981 220.138 89.0852C220.138 88.6723 220.056 88.3201 219.893 88.0284C219.731 87.733 219.482 87.5095 219.149 87.358C218.816 87.2027 218.386 87.125 217.859 87.125H215.928V97H213.82ZM219.831 91.7273L222.712 97H220.359L217.53 91.7273H219.831ZM225.72 97H223.47L227.567 85.3636H230.169L234.271 97H232.021L228.913 87.75H228.822L225.72 97ZM225.794 92.4375H231.93V94.1307H225.794V92.4375ZM235.804 97V85.3636H240.259C241.099 85.3636 241.798 85.4962 242.355 85.7614C242.916 86.0227 243.334 86.3807 243.611 86.8352C243.891 87.2898 244.031 87.8049 244.031 88.3807C244.031 88.8542 243.94 89.2595 243.759 89.5966C243.577 89.9299 243.332 90.2008 243.026 90.4091C242.719 90.6174 242.376 90.767 241.997 90.858V90.9716C242.41 90.9943 242.806 91.1212 243.185 91.3523C243.567 91.5795 243.88 91.9015 244.122 92.3182C244.365 92.7348 244.486 93.2386 244.486 93.8295C244.486 94.4318 244.34 94.9735 244.048 95.4545C243.757 95.9318 243.317 96.3087 242.73 96.5852C242.143 96.8617 241.404 97 240.514 97H235.804ZM237.912 95.2386H240.179C240.944 95.2386 241.495 95.0928 241.832 94.8011C242.173 94.5057 242.344 94.1269 242.344 93.6648C242.344 93.3201 242.259 93.0095 242.088 92.733C241.918 92.4527 241.675 92.233 241.361 92.0739C241.046 91.911 240.671 91.8295 240.236 91.8295H237.912V95.2386ZM237.912 90.3125H239.997C240.361 90.3125 240.688 90.2462 240.98 90.1136C241.272 89.9773 241.501 89.786 241.668 89.5398C241.838 89.2898 241.923 88.9943 241.923 88.6534C241.923 88.2027 241.764 87.8314 241.446 87.5398C241.132 87.2481 240.664 87.1023 240.043 87.1023H237.912V90.3125ZM247.814 97H245.564L249.661 85.3636H252.263L256.365 97H254.115L251.007 87.75H250.916L247.814 97ZM247.888 92.4375H254.024V94.1307H247.888V92.4375ZM257.898 97V85.3636H260.006V95.233H265.131V97H257.898ZM266.96 97V85.3636H269.068V90.2898H274.46V85.3636H276.574V97H274.46V92.0568H269.068V97H266.96ZM289.264 91.1818C289.264 92.4356 289.029 93.5095 288.56 94.4034C288.094 95.2936 287.457 95.9754 286.651 96.4489C285.848 96.9223 284.937 97.1591 283.918 97.1591C282.899 97.1591 281.986 96.9223 281.179 96.4489C280.376 95.9716 279.74 95.2879 279.27 94.3977C278.804 93.5038 278.571 92.4318 278.571 91.1818C278.571 89.928 278.804 88.8561 279.27 87.9659C279.74 87.072 280.376 86.3883 281.179 85.9148C281.986 85.4413 282.899 85.2045 283.918 85.2045C284.937 85.2045 285.848 85.4413 286.651 85.9148C287.457 86.3883 288.094 87.072 288.56 87.9659C289.029 88.8561 289.264 89.928 289.264 91.1818ZM287.145 91.1818C287.145 90.2992 287.007 89.5549 286.73 88.9489C286.457 88.339 286.079 87.8788 285.594 87.5682C285.109 87.2538 284.55 87.0966 283.918 87.0966C283.285 87.0966 282.726 87.2538 282.241 87.5682C281.757 87.8788 281.376 88.339 281.099 88.9489C280.827 89.5549 280.69 90.2992 280.69 91.1818C280.69 92.0644 280.827 92.8106 281.099 93.4205C281.376 94.0265 281.757 94.4867 282.241 94.8011C282.726 95.1117 283.285 95.267 283.918 95.267C284.55 95.267 285.109 95.1117 285.594 94.8011C286.079 94.4867 286.457 94.0265 286.73 93.4205C287.007 92.8106 287.145 92.0644 287.145 91.1818Z" fill="#0047B6"/>
<path d="M122.453 65.9197H113.006L120.257 31.0871H129.704L122.453 65.9197ZM111.763 41.3159H102.316C102.638 39.9638 102.425 38.9524 101.726 38.2287C101.073 37.5033 99.922 37.1184 98.3164 37.1184C96.1489 37.1184 93.9547 38.5658 93.5929 40.3027C93.0643 42.8569 95.9138 43.6794 98.2764 44.3554C103.685 45.8504 111.872 46.4277 109.919 55.8374C108.394 63.168 100.582 66.6502 92.6942 66.6502C86.8586 66.6502 81.7882 65.3646 80.2493 60.9135C79.6991 59.3179 79.6024 57.3171 80.0825 54.8242H89.5296C88.806 58.1038 90.7901 59.8901 94.1981 59.8901C96.3807 59.8901 99.4035 58.7305 99.8837 56.4147C100.867 51.6877 93.6629 52.6991 86.9419 49.3718C83.8157 47.8291 82.7836 44.6431 83.5639 40.8799C85.6581 32.6332 93.2144 30.3651 100.347 30.3651C107.387 30.3651 114.079 32.9193 111.772 41.3159H111.763ZM76.4928 45.0246L75.0906 51.7779H59.8812L58.3456 59.1579H74.8788L73.4699 65.9129H47.488L54.7409 31.0871H80.7211L80.2426 33.3791L79.3122 37.8421H62.7774L61.2768 45.0297L76.4928 45.0246ZM46.1475 41.3107H36.6954C37.0172 39.9587 36.8055 38.9472 36.1052 38.2236C35.4516 37.4982 34.3028 37.1133 32.6972 37.1133C30.5297 37.1133 28.3355 38.5607 27.972 40.2976C27.4451 42.8518 30.2946 43.6742 32.6572 44.3503C38.0643 45.8453 46.2525 46.4226 44.3001 55.8323C42.7728 63.1629 34.9631 66.6451 27.075 66.6451C19.1385 66.6451 12.6359 64.2731 14.4616 54.8191H23.9104C23.1851 58.0987 25.1709 59.885 28.5705 59.885C30.7514 59.885 33.7743 58.7254 34.2528 56.4095C35.2382 51.6825 28.0353 52.694 21.311 49.3667C18.1865 47.824 17.1544 44.638 17.9347 40.8748C20.0272 32.6281 27.5868 30.36 34.7196 30.36C41.7574 30.36 48.4501 32.9142 46.1425 41.3107H46.1475ZM133.254 32.4238V31.1331H142.924V24H0.497803V31.1365H10.1683V32.4238H0.497803V39.3627H10.1683V40.6535H0.497803V47.8053H10.1683V49.1113H0.497803V56.3823H10.1683V57.673H0.497803V64.6392H10.1683V65.9299H0.497803V73H142.926V65.9231H133.255V64.6324H142.926V57.6662H133.255V56.3755H142.926V49.1113H133.255V47.8206H142.926V40.6688H133.255V39.3781H142.926V32.4238H133.254Z" fill="#0047B6"/>
<path d="M159.613 24V31.1391H169.695V32.429H159.613V39.3662H169.695V40.6664H159.613V47.8225H169.695V49.1125H159.613V56.385H169.695V57.6732H159.613V64.6394H169.695V65.9277H159.613V73H347.373V24H159.613ZM205.388 41.3507H195.928C196.252 40.0043 196.039 38.9898 195.339 38.2713C194.684 37.5476 193.532 37.1627 191.924 37.1627C189.741 37.1627 187.558 38.61 187.197 40.343C186.667 42.8972 189.521 43.7167 191.887 44.3924C197.3 45.8876 205.5 46.4642 203.544 55.8546C202.015 63.1802 194.196 66.6565 186.299 66.6565C178.351 66.6565 171.84 64.2887 173.668 54.8418H183.128C182.402 58.1197 184.388 59.904 187.795 59.904C189.978 59.904 193 58.7475 193.485 56.4346C194.473 51.7094 187.258 52.7205 180.528 49.3964C177.397 47.8567 176.364 44.673 177.144 40.9161C179.241 32.6736 186.808 30.412 193.95 30.412C200.999 30.4154 207.698 32.9679 205.388 41.3507ZM234.372 51.8103H219.144L217.608 59.1821H234.159L232.75 65.9294H206.736L213.989 31.1356H240.014L239.057 35.7154L238.602 37.8812H222.049L220.549 45.0665H235.781L234.372 51.8103ZM258.29 65.9294L252.261 39.2789H252.167L246.607 65.9294H238.096L239.053 61.3428L245.353 31.1356H258.595L264.64 57.0624L264.749 56.9666L270.14 31.1339H278.653L276.771 40.1531L271.389 65.9362L258.29 65.9294ZM302.7 65.9294L301.85 59.1427H287.991L284.35 65.9362H274.89L276.771 62.7815L295.629 31.1425H307.174L313.386 65.9362L302.7 65.9294ZM326.444 65.9294H316.985L324.245 31.1356H333.702L326.444 65.9294ZM347.371 65.9208H337.287V64.6326H347.371V65.9208ZM347.371 57.6663H337.287V56.3781H347.371V57.6663ZM347.371 49.1125H337.287V47.8225H347.371V49.1125ZM347.371 40.6664H337.287V39.3747H347.371V40.6664ZM347.371 32.4358H337.287V31.1459H347.371V32.4358Z" fill="#0047B6"/>
<path d="M299.463 37.8923L296.372 43.7133L291.807 52.3117H296.372H300.935L299.604 37.8923H299.463Z" fill="#0047B6"/>
</svg>
